#define playpause_width 9
#define playpause_height 8
static unsigned char playpause_bits[] = {
   0x00, 0x00, 0x1b, 0x00, 0x7b, 0x00, 0xfb, 0x01, 0xfb, 0x01, 0x7b, 0x00,
   0x1b, 0x00, 0x00, 0x00 };
